<svg width="60" height="61" viewBox="0 0 60 61" fill="none" xmlns="http://www.w3.org/2000/svg">
<path d="M10.7401 30.5L31.9701 8.68251C32.1449 8.50669 32.283 8.29795 32.3766 8.06837C32.4702 7.83879 32.5173 7.59293 32.5153 7.34502C32.5132 7.09711 32.462 6.85206 32.3646 6.62407C32.2672 6.39608 32.1256 6.18966 31.9479 6.01677C31.7702 5.84387 31.56 5.70794 31.3295 5.61682C31.0989 5.5257 30.8525 5.48122 30.6046 5.48594C30.3568 5.49065 30.1123 5.54449 29.8854 5.64431C29.6584 5.74414 29.4535 5.88798 29.2826 6.06751L6.78256 29.1925C6.44201 29.5425 6.25146 30.0116 6.25146 30.5C6.25146 30.9884 6.44201 31.4575 6.78256 31.8075L29.2826 54.9325C29.4535 55.112 29.6584 55.2559 29.8854 55.3557C30.1123 55.4555 30.3568 55.5094 30.6046 55.5141C30.8525 55.5188 31.0989 55.4743 31.3295 55.3832C31.56 55.2921 31.7702 55.1562 31.9479 54.9833C32.1256 54.8104 32.2672 54.604 32.3646 54.376C32.462 54.148 32.5132 53.9029 32.5153 53.655C32.5173 53.4071 32.4702 53.1612 32.3766 52.9317C32.283 52.7021 32.1449 52.4933 31.9701 52.3175L10.7401 30.5Z" fill="#06DC22"/>
</svg>
