<svg width="33" height="32" viewBox="0 0 33 32" fill="none" xmlns="http://www.w3.org/2000/svg">
<path d="M7.01563 16.5237L8.01563 16.5237L7.01563 16.5237ZM7.01562 24.0439H6.01562H7.01562ZM24.5258 25.5V24.5V25.5ZM8.47481 25.5V26.5H8.47481L8.47481 25.5ZM25.985 16.5238H24.985H25.985ZM25.985 24.0439H26.985H25.985ZM25.2129 14.5504L24.4782 15.2288L25.2129 14.5504ZM18.6466 7.43887L17.9119 8.11726L18.6466 7.43887ZM14.3541 7.43887L15.0888 8.11725V8.11725L14.3541 7.43887ZM7.78777 14.5504L7.05306 13.872H7.05306L7.78777 14.5504ZM13.582 18.2194H14.582H13.582ZM13.582 24.7719H12.582H13.582ZM18.6891 25.5V24.5V25.5ZM14.3116 25.5V26.5V25.5ZM19.4187 18.2195L20.4187 18.2195V18.2195H19.4187ZM19.4187 24.7719H18.4187H19.4187ZM18.6891 17.4914L18.6891 18.4914L18.6891 17.4914ZM14.3116 17.4914L14.3115 18.4914H14.3116L14.3116 17.4914ZM6.01563 16.5237L6.01562 24.0439H8.01562L8.01563 16.5237L6.01563 16.5237ZM24.5258 24.5L8.47481 24.5L8.47481 26.5L24.5258 26.5V24.5ZM24.985 16.5238V24.0439H26.985V16.5238H24.985ZM25.9476 13.872L19.3813 6.76049L17.9119 8.11726L24.4782 15.2288L25.9476 13.872ZM13.6194 6.76048L7.05306 13.872L8.52247 15.2288L15.0888 8.11725L13.6194 6.76048ZM19.3813 6.76049C17.8295 5.07984 15.1712 5.07983 13.6194 6.76048L15.0888 8.11725C15.8487 7.29425 17.1519 7.29425 17.9119 8.11726L19.3813 6.76049ZM26.985 16.5238C26.985 15.5409 26.6145 14.5943 25.9476 13.872L24.4782 15.2288C24.8043 15.582 24.985 16.0443 24.985 16.5238H26.985ZM8.01563 16.5237C8.01563 16.0443 8.19635 15.582 8.52247 15.2288L7.05306 13.872C6.38616 14.5943 6.01563 15.5408 6.01563 16.5237L8.01563 16.5237ZM6.01562 24.0439C6.01562 25.4023 7.11863 26.5 8.47481 26.5L8.47481 24.5C8.21922 24.5 8.01562 24.2938 8.01562 24.0439H6.01562ZM24.5258 26.5C25.882 26.5 26.985 25.4023 26.985 24.0439H24.985C24.985 24.2938 24.7814 24.5 24.5258 24.5V26.5ZM12.582 18.2194L12.582 24.7719H14.582L14.582 18.2194H12.582ZM18.6891 24.5H14.3116V26.5H18.6891V24.5ZM18.4187 18.2195L18.4187 24.7719H20.4187L20.4187 18.2195L18.4187 18.2195ZM18.6891 16.4914L14.3116 16.4914L14.3116 18.4914L18.6891 18.4914L18.6891 16.4914ZM20.4187 18.2195C20.4187 17.2631 19.6423 16.4914 18.6891 16.4914L18.6891 18.4914C18.5418 18.4914 18.4187 18.3716 18.4187 18.2195H20.4187ZM14.582 18.2194C14.582 18.3716 14.4589 18.4914 14.3115 18.4914L14.3116 16.4914C13.3583 16.4914 12.582 17.2631 12.582 18.2194H14.582ZM12.582 24.7719C12.582 25.7283 13.3583 26.5 14.3116 26.5V24.5C14.4589 24.5 14.582 24.6198 14.582 24.7719H12.582ZM18.6891 26.5C19.6423 26.5 20.4187 25.7283 20.4187 24.7719H18.4187C18.4187 24.6198 18.5417 24.5 18.6891 24.5V26.5Z" fill="#06DC22"/>
</svg>
