<svg width="61" height="60" viewBox="0 0 61 60" fill="none" xmlns="http://www.w3.org/2000/svg">
<path d="M49.7599 30L28.5299 51.8175C28.3551 51.9933 28.217 52.202 28.1234 52.4316C28.0298 52.6612 27.9827 52.9071 27.9847 53.155C27.9868 53.4029 28.038 53.6479 28.1354 53.8759C28.2328 54.1039 28.3744 54.3103 28.5521 54.4832C28.7298 54.6561 28.94 54.7921 29.1705 54.8832C29.4011 54.9743 29.6475 55.0188 29.8954 55.0141C30.1432 55.0093 30.3877 54.9555 30.6146 54.8557C30.8416 54.7559 31.0465 54.612 31.2174 54.4325L53.7174 31.3075C54.058 30.9575 54.2485 30.4884 54.2485 30C54.2485 29.5116 54.058 29.0425 53.7174 28.6925L31.2174 5.56748C31.0465 5.38795 30.8416 5.24411 30.6146 5.14429C30.3877 5.04445 30.1432 4.99063 29.8954 4.98591C29.6475 4.98119 29.4011 5.02567 29.1706 5.11679C28.94 5.20791 28.7298 5.34384 28.5521 5.51674C28.3744 5.68963 28.2328 5.89605 28.1354 6.12404C28.038 6.35203 27.9868 6.59708 27.9847 6.84499C27.9827 7.0929 28.0298 7.33876 28.1234 7.56834C28.217 7.79792 28.3552 8.00666 28.5299 8.18249L49.7599 30Z" fill="#06DC22"/>
</svg>
