<svg width="77" height="77" viewBox="0 0 77 77" fill="none" xmlns="http://www.w3.org/2000/svg">
<path d="M74 3H3V74H74V3Z" stroke="#2967B0" stroke-width="5" stroke-miterlimit="10"/>
<path d="M40.7124 34.6525C41.2059 34.0988 41.6093 33.5409 42.1158 33.0645C43.6694 31.6009 45.5063 30.8628 47.648 30.8799C48.8239 30.8885 49.9913 30.9743 51.1287 31.3048C53.7252 32.0559 55.236 33.8456 55.957 36.3821C56.4978 38.2834 56.5965 40.2404 56.6008 42.2018C56.6093 46.3349 56.5879 50.4722 56.6008 54.6052C56.6008 54.9915 56.4935 55.0945 56.1115 55.0902C53.9827 55.0731 51.8497 55.0731 49.7209 55.0902C49.3475 55.0902 49.266 54.9786 49.266 54.6224C49.2789 50.6868 49.2789 46.7512 49.266 42.8198C49.266 41.8327 49.2016 40.8499 48.9227 39.8885C48.4119 38.1246 47.1501 37.2233 45.3003 37.322C42.7724 37.455 41.4591 38.7082 41.1372 41.2748C41.06 41.8885 41.0257 42.5022 41.0257 43.1203C41.0257 46.9486 41.0257 50.7726 41.0342 54.6009C41.0342 54.9829 40.9398 55.0945 40.5493 55.0902C38.4033 55.0731 36.2574 55.0731 34.1115 55.0902C33.7681 55.0902 33.6694 55.0001 33.6694 54.6524C33.678 47.0773 33.678 39.5022 33.6694 31.9228C33.6694 31.5495 33.7939 31.4593 34.1458 31.4636C36.1845 31.4808 38.2231 31.4808 40.2574 31.4636C40.6308 31.4636 40.7295 31.5795 40.7209 31.9357C40.6995 32.8413 40.7124 33.7469 40.7124 34.6525Z" fill="#2967B0"/>
<path d="M29.0388 43.3089C29.0388 47.0557 29.0346 50.8067 29.0474 54.5535C29.0474 54.9698 28.9444 55.0943 28.5152 55.09C26.3865 55.0685 24.2577 55.0728 22.1247 55.09C21.7813 55.09 21.6826 55.0084 21.6826 54.6522C21.6912 47.0642 21.6912 39.4763 21.6826 31.8883C21.6826 31.3175 21.9358 31.4162 23.5324 31.6522C24.9144 31.8582 26.3264 31.8368 27.6998 31.5793C28.9187 31.3518 29.0431 31.4505 29.0431 31.9784C29.0345 35.7552 29.0388 39.5364 29.0388 43.3132V43.3089Z" fill="#2967B0"/>
<path d="M29.6266 23.9442C29.6266 27.2746 25.8069 29.7296 22.3305 27.1244C19.5279 23.6652 22.0258 19.7124 25.3777 19.7124C27.7039 19.7124 29.6223 21.6266 29.6223 23.9442H29.6266Z" fill="#2967B0"/>
</svg>
